<svg xmlns="http://www.w3.org/2000/svg" class="h-8 w-8" viewBox="0 0 38 44" fill="currentColor"><path fill-rule="evenodd" clip-rule="evenodd" d="M19.7655 1.4479C19.2605 1.34403 18.7396 1.34403 18.2345 1.4479C17.6507 1.56797 17.1289 1.86023 16.7141 2.09258L16.601 2.15574L2.54153 9.96657C2.50266 9.98816 2.46261 10.0102 2.42157 10.0328C1.98243 10.2747 1.43029 10.5788 1.00627 11.0389C0.639674 11.4368 0.362246 11.9082 0.192535 12.4219C-0.00375985 13.016 -0.00146325 13.6464 0.000363158 14.1477C0.000533889 14.1946 0.000700421 14.2403 0.000700421 14.2847V29.7067C0.000700421 29.7511 0.000533889 29.7969 0.000363158 29.8437C-0.00146325 30.3451 -0.00375985 30.9754 0.192536 31.5695C0.362247 32.0832 0.639677 32.5547 1.00627 32.9525C1.43029 33.4126 1.98244 33.7167 2.42157 33.9586C2.46261 33.9812 2.50266 34.0033 2.54153 34.0249L16.601 41.8357L16.7141 41.8988C17.1289 42.1312 17.6507 42.4235 18.2345 42.5435C18.7396 42.6474 19.2605 42.6474 19.7655 42.5435C20.3493 42.4235 20.8711 42.1312 21.2859 41.8988L21.399 41.8357L35.4585 34.0249C35.4757 34.0153 35.4931 34.0057 35.5107 33.9959C35.5329 33.9837 35.5555 33.9712 35.5784 33.9586C36.0176 33.7167 36.5697 33.4126 36.9937 32.9525C37.3603 32.5547 37.6378 32.0832 37.8075 31.5695C38.0038 30.9754 38.0015 30.3451 37.9996 29.8437C37.9995 29.7969 37.9993 29.7511 37.9993 29.7067V14.2847C37.9993 14.2403 37.9995 14.1946 37.9996 14.1477C38.0015 13.6464 38.0038 13.016 37.8075 12.4219C37.6378 11.9082 37.3603 11.4367 36.9937 11.0389C36.5697 10.5788 36.0176 10.2747 35.5784 10.0328L35.5769 10.032C35.5364 10.0097 35.4968 9.98788 35.4585 9.96657L21.399 2.15574L21.2859 2.09257C20.8711 1.86022 20.3493 1.56797 19.7655 1.4479ZM18.4464 5.47742C18.7343 5.31746 18.8813 5.23664 18.9909 5.18376L19 5.17941L19.0091 5.18376C19.1187 5.23664 19.2657 5.31746 19.5536 5.47742L32.1871 12.496L18.9999 19.8222L5.81285 12.4961L18.4464 5.47742ZM3.80056 15.725L17.1 23.1136L17.1001 37.766L4.38691 30.7032C4.08301 30.5343 3.92785 30.4472 3.81899 30.3779L3.8098 30.372L3.80911 30.3611C3.80135 30.2323 3.80056 30.0543 3.80056 29.7067V15.725Z" fill="currentColor"></path></svg>
